# xmcd
#
# Track frame offsets: 
#        150
#        29106
#        58295
#        80817
#        109974
#        142627
#        163315
#        186531
#        207506
#        233488
#        248244
#
# Disc length: 3457 seconds
#
# Revision: 1
# Processed by: cddbd v1.5.2PL0 Copyright (c) Steve Scherf et al.
# Submitted via: ExactAudioCopyFreeDBPlugin 1.0
#
DISCID=a70d7f0b
DTITLE=Khalil Chahine - Noun
DYEAR=2009
DGENRE=Jazz
TTITLE0=Noun
TTITLE1=Au Nombril Elégant
TTITLE2=Les Virtuosités De La Torpeur
TTITLE3=Larmes Aux Esprits
TTITLE4=Dar Es Salam
TTITLE5=Tebeteba
TTITLE6=Entre Juncal Y French
TTITLE7=Roms
TTITLE8=Cailar
TTITLE9=I Promise
TTITLE10=Promesse
EXTD=YEAR: 2009
EXTT0=
EXTT1=
EXTT2=
EXTT3=
EXTT4=
EXTT5=
EXTT6=
EXTT7=
EXTT8=
EXTT9=
EXTT10=
PLAYORDER=
